<?xml version="1.0" encoding="UTF-8"?><svg id="Layer_2" xmlns="http://www.w3.org/2000/svg" viewBox="0 0 22.73 27.38"><g id="Layer_1-2"><path d="M11.35,27.38c-2.69,0-5.38,0-8.08,0-1.69,0-2.93-1.04-3.23-2.7-.13-.72,0-1.41.35-2.06,1.94-3.76,3.88-7.52,5.82-11.28.44-.85.89-1.68,1.27-2.55.18-.4.29-.87.3-1.3.03-1.65.02-3.3,0-4.96,0-.14-.11-.34-.22-.42-.49-.33-.7-.73-.57-1.21C7.15.34,7.57,0,8.16,0c1.64,0,3.28,0,4.91,0,.48,0,.97,0,1.45,0,.63.01,1.07.33,1.21.88.12.47-.1.86-.65,1.21-.08.05-.17.19-.17.29,0,1.82-.03,3.65.02,5.47.01.43.25.87.45,1.27,2.29,4.44,4.59,8.88,6.89,13.31.58,1.11.62,2.23,0,3.34-.61,1.09-1.59,1.6-2.82,1.61-2.71.02-5.41,0-8.12,0ZM9.44,1.67c0,.2,0,.36,0,.51,0,1.82-.01,3.65,0,5.47,0,.63-.12,1.21-.41,1.76-1.68,3.27-3.36,6.54-5.05,9.81-.7,1.36-1.42,2.72-2.1,4.09-.63,1.26.12,2.43,1.51,2.43,5.36,0,10.71,0,16.07,0,.76,0,1.35-.47,1.58-1.19.16-.51-.03-.94-.25-1.38-2.32-4.48-4.63-8.95-6.95-13.43-.4-.76-.59-1.55-.58-2.41.02-1.74,0-3.48,0-5.21,0-.15-.01-.3-.02-.45h-3.82Z"/><path d="M13.84,21.4c-1.23,0-2.21-1.04-2.21-2.33,0-1.23,1.02-2.23,2.27-2.23,1.27,0,2.3,1.04,2.29,2.31-.01,1.27-1.04,2.25-2.35,2.24Z"/><path d="M9.72,17.13c-.84,0-1.52-.68-1.52-1.51,0-.89.67-1.6,1.5-1.59.82,0,1.55.75,1.54,1.58,0,.84-.69,1.53-1.51,1.53Z"/><path d="M13.07,12.17c0,.54-.45,1.02-.98,1.02-.54,0-.97-.45-.98-1.01,0-.55.44-1.02.97-1.02.54,0,.97.44.98,1.01Z"/></g></svg>